<svg width="26" height="25" viewBox="0 0 26 25" fill="none" xmlns="http://www.w3.org/2000/svg">
<path d="M1.62492 7.75H24.3749M0.93695 8.41773L12.2983 23.1538C12.3808 23.2615 12.4871 23.3487 12.6087 23.4087C12.7304 23.4687 12.8643 23.4999 12.9999 23.4999C13.1356 23.4999 13.2694 23.4687 13.3911 23.4087C13.5128 23.3487 13.619 23.2615 13.7016 23.1538L25.0629 8.41773C25.1746 8.27229 25.2394 8.09629 25.2487 7.91314C25.258 7.72998 25.2113 7.54833 25.1148 7.39234L21.261 1.17164C21.1817 1.04291 21.0707 0.93659 20.9387 0.862794C20.8068 0.788998 20.6581 0.75017 20.5069 0.75H5.49297C5.34175 0.75017 5.19308 0.788998 5.06109 0.862794C4.9291 0.93659 4.81816 1.04291 4.73883 1.17164L0.884997 7.39234C0.788559 7.54833 0.741878 7.72998 0.751158 7.91314C0.760438 8.09629 0.825239 8.27229 0.93695 8.41773V8.41773Z" stroke="#0DB760" stroke-width="1.5" stroke-linecap="round" stroke-linejoin="round"/>
</svg>
