<svg viewBox="0 0 217.824 108.912" height="108.912" width="217.824" xmlns="http://www.w3.org/2000/svg">
  <g transform="translate(5.016 3.896)" id="Logo">
    <path stroke-width="7.792" stroke-miterlimit="10" stroke-linejoin="round" stroke-linecap="round" stroke="#32ccff" fill="none" d="M207.792,6.493C202.02,4.329,190.476,0,181.818,0S164.5,6.493,155.844,6.493,138.528,0,129.87,0,112.554,6.493,103.9,6.493,86.58,0,77.922,0,60.606,6.493,51.948,6.493,34.632,0,25.974,0,5.772,4.329,0,6.493" data-name="Stroke 1" id="Stroke_1"></path>
    <path stroke-width="7.792" stroke-miterlimit="10" stroke-linejoin="round" stroke-linecap="round" stroke="#32aaff" fill="none" transform="translate(0 7.792)" d="M207.792,6.494C202.02,4.329,190.476,0,181.818,0S164.5,6.494,155.844,6.494,138.528,0,129.87,0,112.554,6.494,103.9,6.494,86.58,0,77.922,0,60.606,6.494,51.948,6.494,34.632,0,25.974,0,5.772,4.329,0,6.494" data-name="Stroke 2" id="Stroke_2"></path>
    <path stroke-width="7.792" stroke-miterlimit="10" stroke-linejoin="round" stroke-linecap="round" stroke="#3287ff" fill="none" transform="translate(0 15.584)" d="M207.792,6.494C202.02,4.329,190.476,0,181.818,0S164.5,6.494,155.844,6.494,138.528,0,129.87,0,112.554,6.494,103.9,6.494,86.58,0,77.922,0,60.606,6.494,51.948,6.494,34.632,0,25.974,0,5.772,4.329,0,6.494" data-name="Stroke 3" id="Stroke_3"></path>
    <path stroke-width="7.792" stroke-miterlimit="10" stroke-linejoin="round" stroke-linecap="round" stroke="#3265ff" fill="none" transform="translate(0 23.376)" d="M207.792,6.494C202.02,4.329,190.476,0,181.818,0S164.5,6.494,155.844,6.494,138.528,0,129.87,0,112.554,6.494,103.9,6.494,86.58,0,77.922,0,60.606,6.494,51.948,6.494,34.632,0,25.974,0,5.772,4.329,0,6.494" data-name="Stroke 4" id="Stroke_4"></path>
    <path stroke-width="7.792" stroke-miterlimit="10" stroke-linejoin="round" stroke-linecap="round" stroke="#50f" fill="none" transform="translate(0 31.169)" d="M207.792,6.494C202.02,4.329,190.476,0,181.818,0S164.5,6.494,155.844,6.494,138.528,0,129.87,0,112.554,6.494,103.9,6.494,86.58,0,77.922,0,60.606,6.494,51.948,6.494,34.632,0,25.974,0,5.772,4.329,0,6.494" data-name="Stroke 5" id="Stroke_5"></path>
    <path stroke-width="7.792" stroke-miterlimit="10" stroke-linejoin="round" stroke-linecap="round" stroke="#3a00c0" fill="none" transform="translate(0 38.961)" d="M207.792,6.494C202.02,4.329,190.476,0,181.818,0S164.5,6.494,155.844,6.494,138.528,0,129.87,0,112.554,6.494,103.9,6.494,86.58,0,77.922,0,60.606,6.494,51.948,6.494,34.632,0,25.974,0,5.772,4.329,0,6.494" data-name="Stroke 6" id="Stroke_6"></path>
    <path stroke-width="7.792" stroke-miterlimit="10" stroke-linejoin="round" stroke-linecap="round" stroke="#000f98" fill="none" transform="translate(0 46.753)" d="M207.792,6.494C202.02,4.329,190.476,0,181.818,0S164.5,6.494,155.844,6.494,138.528,0,129.87,0,112.554,6.494,103.9,6.494,86.58,0,77.922,0,60.606,6.494,51.948,6.494,34.632,0,25.974,0,5.772,4.329,0,6.494" data-name="Stroke 7" id="Stroke_7"></path>
    <path stroke-width="7.792" stroke-miterlimit="10" stroke-linejoin="round" stroke-linecap="round" stroke="#3a00c0" fill="none" transform="translate(0 54.545)" d="M207.792,6.494C202.02,4.329,190.476,0,181.818,0S164.5,6.494,155.844,6.494,138.528,0,129.87,0,112.554,6.494,103.9,6.494,86.58,0,77.922,0,60.606,6.494,51.948,6.494,34.632,0,25.974,0,5.772,4.329,0,6.494" data-name="Stroke 8" id="Stroke_8"></path>
    <path stroke-width="7.792" stroke-miterlimit="10" stroke-linejoin="round" stroke-linecap="round" stroke="#50f" fill="none" transform="translate(0 62.338)" d="M207.792,6.494C202.02,4.329,190.476,0,181.818,0S164.5,6.494,155.844,6.494,138.528,0,129.87,0,112.554,6.494,103.9,6.494,86.58,0,77.922,0,60.606,6.494,51.948,6.494,34.632,0,25.974,0,5.772,4.329,0,6.494" data-name="Stroke 9" id="Stroke_9"></path>
    <path stroke-width="7.792" stroke-miterlimit="10" stroke-linejoin="round" stroke-linecap="round" stroke="#3265ff" fill="none" transform="translate(0 70.13)" d="M207.792,6.494C202.02,4.329,190.476,0,181.818,0S164.5,6.494,155.844,6.494,138.528,0,129.87,0,112.554,6.494,103.9,6.494,86.58,0,77.922,0,60.606,6.494,51.948,6.494,34.632,0,25.974,0,5.772,4.329,0,6.494" data-name="Stroke 10" id="Stroke_10"></path>
    <path stroke-width="7.792" stroke-miterlimit="10" stroke-linejoin="round" stroke-linecap="round" stroke="#3287ff" fill="none" transform="translate(0 77.922)" d="M207.792,6.494C202.02,4.329,190.476,0,181.818,0S164.5,6.494,155.844,6.494,138.528,0,129.87,0,112.554,6.494,103.9,6.494,86.58,0,77.922,0,60.606,6.494,51.948,6.494,34.632,0,25.974,0,5.772,4.329,0,6.494" data-name="Stroke 11" id="Stroke_11"></path>
    <path stroke-width="7.792" stroke-miterlimit="10" stroke-linejoin="round" stroke-linecap="round" stroke="#32aaff" fill="none" transform="translate(0 85.714)" d="M207.792,6.494C202.02,4.329,190.476,0,181.818,0S164.5,6.494,155.844,6.494,138.528,0,129.87,0,112.554,6.494,103.9,6.494,86.58,0,77.922,0,60.606,6.494,51.948,6.494,34.632,0,25.974,0,5.772,4.329,0,6.494" data-name="Stroke 12" id="Stroke_12"></path>
    <path stroke-width="7.792" stroke-miterlimit="10" stroke-linejoin="round" stroke-linecap="round" stroke="#32ccff" fill="none" transform="translate(0 93.506)" d="M207.792,6.494C202.02,4.329,190.476,0,181.818,0S164.5,6.494,155.844,6.494,138.528,0,129.87,0,112.554,6.494,103.9,6.494,86.58,0,77.922,0,60.606,6.494,51.948,6.494,34.632,0,25.974,0,5.772,4.329,0,6.494" data-name="Stroke 13" id="Stroke_13"></path>
    <path fill="#fff" transform="translate(32.467 19.48)" d="M12.987,51.948H0V0H12.987A12.986,12.986,0,0,1,25.974,12.987V38.961A12.986,12.986,0,0,1,12.987,51.948ZM6.493,6.494V45.455h6.493a6.5,6.5,0,0,0,6.493-6.493V12.987a6.5,6.5,0,0,0-6.493-6.494Z" data-name="Fill 14" id="Fill_14"></path>
    <path fill="#fff" transform="translate(71.429 19.48)" d="M6.494,38.961v-9.74H19.48V22.727H6.494v-9.74a6.5,6.5,0,0,1,6.494-6.494H25.974V0H12.987A12.993,12.993,0,0,0,0,12.987V38.961A12.993,12.993,0,0,0,12.987,51.948H25.974V45.455H12.987A6.5,6.5,0,0,1,6.494,38.961Z" data-name="Fill 15" id="Fill_15"></path>
    <path fill="#fff" transform="translate(110.39 19.48)" d="M25.974,36.364H19.48v2.6a6.493,6.493,0,1,1-12.987,0V12.987a6.493,6.493,0,1,1,12.987,0v2.6h6.494v-2.6A12.987,12.987,0,1,0,0,12.987V38.961a12.987,12.987,0,0,0,25.974,0Z" data-name="Fill 16" id="Fill_16"></path>
    <path fill="#fff" transform="translate(149.351 19.48)" d="M12.987,51.948A13,13,0,0,1,0,38.961V12.987a12.987,12.987,0,0,1,25.974,0V38.961A13,13,0,0,1,12.987,51.948Zm0-45.455a6.5,6.5,0,0,0-6.494,6.493V38.961a6.494,6.494,0,0,0,12.987,0V12.987A6.5,6.5,0,0,0,12.987,6.494Z" data-name="Fill 17" id="Fill_17"></path>
    <path fill="#fff" transform="translate(40.584 76.623)" d="M6.937,8.96,8.117,0H9.74L8.031,12.987H5.844l-.934-7.1-.934,7.1H1.71L0,0H1.623L2.843,9.262,4.062,0h1.7Z" data-name="Fill 18" id="Fill_18"></path>
    <path fill="#fff" transform="translate(71.429 76.623)" d="M3.246,12.987A3.25,3.25,0,0,1,0,9.74V3.246a3.247,3.247,0,0,1,6.494,0V9.74A3.251,3.251,0,0,1,3.246,12.987Zm0-11.363A1.625,1.625,0,0,0,1.624,3.246V9.74a1.623,1.623,0,1,0,3.246,0V3.246A1.625,1.625,0,0,0,3.246,1.624Z" data-name="Fill 19" id="Fill_19"></path>
    <path fill="#fff" transform="translate(100.487 76.623)" d="M1.623,12.988H0V0H2.76a3.732,3.732,0,0,1,2.2,6.752l1.863,6.234H4.87L3.213,7.439a3.584,3.584,0,0,1-.453.028H1.623v5.52Zm0-11.121V5.6H3A1.867,1.867,0,0,0,3,1.867Z" data-name="Fill 20" id="Fill_20"></path>
    <path fill="#fff" transform="translate(129.866 76.623)" d="M1.623,11.364V0H0V12.987H6.5V11.364Z" data-name="Fill 21" id="Fill_21"></path>
    <path fill="#fff" transform="translate(159.091 76.623)" d="M3.247,12.987H0V0H3.247a3.226,3.226,0,0,1,2.3.951,3.272,3.272,0,0,1,.951,2.295V9.74a3.273,3.273,0,0,1-.951,2.3A3.226,3.226,0,0,1,3.247,12.987ZM1.623,1.624v9.74H3.247A1.622,1.622,0,0,0,4.87,9.74V3.246A1.634,1.634,0,0,0,4.395,2.1a1.615,1.615,0,0,0-1.148-.475Z" data-name="Fill 22" id="Fill_22"></path>
  </g>
</svg>
